<svg width="129" height="36" viewBox="0 0 129 36" fill="none" xmlns="http://www.w3.org/2000/svg">
<path d="M50.772 26C50.376 26 50.0313 25.868 49.738 25.604C49.4447 25.34 49.298 25.0247 49.298 24.658V11.942C49.298 11.5753 49.4373 11.26 49.716 10.996C50.0093 10.732 50.3613 10.6 50.772 10.6H56.69C58.098 10.6 59.22 10.996 60.056 11.788C60.9067 12.5653 61.332 13.614 61.332 14.934C61.332 15.5647 61.1633 16.166 60.826 16.738C60.4887 17.2953 60.0413 17.728 59.484 18.036V18.102C60.2467 18.366 60.848 18.7987 61.288 19.4C61.7427 20.0013 61.97 20.6907 61.97 21.468C61.97 22.348 61.7647 23.1327 61.354 23.822C60.9433 24.5113 60.3713 25.0467 59.638 25.428C58.9047 25.8093 58.0687 26 57.13 26H50.772ZM56.646 17.068C57.13 17.068 57.5407 16.87 57.878 16.474C58.23 16.078 58.406 15.6013 58.406 15.044C58.406 14.4427 58.2447 13.966 57.922 13.614C57.614 13.262 57.1887 13.086 56.646 13.086H52.158V17.068H56.646ZM57.086 23.514C57.6873 23.514 58.164 23.338 58.516 22.986C58.868 22.6193 59.044 22.1207 59.044 21.49C59.044 20.874 58.868 20.3973 58.516 20.06C58.1787 19.708 57.702 19.532 57.086 19.532H52.158V23.514H57.086ZM68.8967 26.198C67.9874 26.198 67.1587 26.022 66.4107 25.67C65.6627 25.3033 65.0687 24.812 64.6287 24.196C64.1887 23.5653 63.9687 22.8613 63.9687 22.084V19.158C63.9687 18.3367 64.1961 17.596 64.6507 16.936C65.1054 16.276 65.7067 15.7553 66.4547 15.374C67.2174 14.9927 68.0387 14.802 68.9187 14.802C69.7841 14.802 70.5761 14.9853 71.2947 15.352C72.0281 15.704 72.6074 16.2027 73.0327 16.848C73.4581 17.4787 73.6707 18.2047 73.6707 19.026V20.258C73.6707 20.5807 73.5461 20.852 73.2967 21.072C73.0621 21.292 72.7614 21.402 72.3947 21.402H66.6307V21.886C66.6307 22.5167 66.8214 23.03 67.2027 23.426C67.5841 23.822 68.1561 24.02 68.9187 24.02C69.6521 24.02 70.1947 23.8587 70.5467 23.536C70.9134 23.2133 71.0967 22.7953 71.0967 22.282C71.3607 22.2527 71.5441 22.238 71.6467 22.238C72.1894 22.238 72.6147 22.3627 72.9227 22.612C73.2307 22.8467 73.3847 23.184 73.3847 23.624C73.3847 24.0493 73.1867 24.46 72.7907 24.856C72.3947 25.252 71.8521 25.5747 71.1627 25.824C70.4734 26.0733 69.7181 26.198 68.8967 26.198ZM71.1847 19.444V19.026C71.1847 18.41 70.9721 17.9113 70.5467 17.53C70.1214 17.1487 69.5714 16.958 68.8967 16.958C68.2221 16.958 67.6721 17.1487 67.2467 17.53C66.8361 17.8967 66.6307 18.3953 66.6307 19.026V19.444H71.1847ZM79.3962 26.198C78.1789 26.198 77.2549 25.8533 76.6242 25.164C76.0082 24.46 75.7002 23.5727 75.7002 22.502V12.074C75.7002 11.4727 75.9202 11.0473 76.3602 10.798C76.8149 10.534 77.5116 10.402 78.4502 10.402V22.392C78.4502 22.8907 78.5602 23.2573 78.7802 23.492C79.0002 23.712 79.3522 23.822 79.8362 23.822C80.3789 23.822 80.9216 23.6827 81.4642 23.404C81.6109 23.536 81.7209 23.7047 81.7942 23.91C81.8822 24.1007 81.9262 24.2987 81.9262 24.504C81.9262 24.944 81.7062 25.34 81.2662 25.692C80.8262 26.0293 80.2029 26.198 79.3962 26.198ZM86.8728 26.198C85.6555 26.198 84.7315 25.8533 84.1008 25.164C83.4848 24.46 83.1768 23.5727 83.1768 22.502V12.074C83.1768 11.4727 83.3968 11.0473 83.8368 10.798C84.2915 10.534 84.9881 10.402 85.9268 10.402V22.392C85.9268 22.8907 86.0368 23.2573 86.2568 23.492C86.4768 23.712 86.8288 23.822 87.3128 23.822C87.8555 23.822 88.3981 23.6827 88.9408 23.404C89.0875 23.536 89.1975 23.7047 89.2708 23.91C89.3588 24.1007 89.4028 24.2987 89.4028 24.504C89.4028 24.944 89.1828 25.34 88.7428 25.692C88.3028 26.0293 87.6795 26.198 86.8728 26.198ZM94.3934 26.198C93.6454 26.198 92.956 26.0513 92.3254 25.758C91.7094 25.4647 91.2107 25.0467 90.8294 24.504C90.4627 23.9467 90.2794 23.2867 90.2794 22.524C90.2794 21.7613 90.4774 21.1013 90.8734 20.544C91.2694 19.972 91.8047 19.5393 92.4794 19.246C93.1687 18.938 93.924 18.784 94.7454 18.784C95.42 18.784 96.0214 18.894 96.5494 19.114C97.092 19.3193 97.5907 19.6347 98.0454 20.06L98.1554 19.95C98.0234 19.818 97.796 19.62 97.4734 19.356V18.916C97.4734 18.3147 97.2607 17.838 96.8354 17.486C96.41 17.134 95.816 16.958 95.0534 16.958C93.6894 16.958 92.6847 17.4567 92.0394 18.454C91.7167 18.3513 91.4454 18.19 91.2254 17.97C91.0054 17.7353 90.8954 17.486 90.8954 17.222C90.8954 16.782 91.0934 16.3787 91.4894 16.012C91.8854 15.6453 92.4207 15.352 93.0954 15.132C93.77 14.912 94.5034 14.802 95.2954 14.802C96.85 14.802 98.0527 15.1687 98.9034 15.902C99.754 16.6207 100.179 17.6033 100.179 18.85V24.35C100.179 24.9953 99.974 25.4647 99.5634 25.758C99.1527 26.0513 98.5074 26.198 97.6274 26.198V25.296C97.8767 25.0467 98.0454 24.8633 98.1334 24.746L98.0454 24.636C97.5614 25.1493 97.0407 25.538 96.4834 25.802C95.9407 26.066 95.244 26.198 94.3934 26.198ZM95.0974 24.196C95.86 24.196 96.454 24.0493 96.8794 23.756C97.3047 23.4627 97.5174 23.0447 97.5174 22.502C97.5174 21.974 97.2974 21.556 96.8574 21.248C96.432 20.94 95.8527 20.786 95.1194 20.786C94.4447 20.786 93.9094 20.94 93.5134 21.248C93.132 21.5413 92.9414 21.9593 92.9414 22.502C92.9414 23.0593 93.132 23.4847 93.5134 23.778C93.8947 24.0567 94.4227 24.196 95.0974 24.196ZM102.644 11.942C102.644 11.5753 102.783 11.26 103.062 10.996C103.355 10.732 103.707 10.6 104.118 10.6H114.084C114.084 11.48 113.93 12.1253 113.622 12.536C113.328 12.932 112.844 13.13 112.17 13.13H105.592V16.848H111.444C111.444 17.728 111.29 18.3733 110.982 18.784C110.688 19.18 110.204 19.378 109.53 19.378H105.592V24.108C105.592 24.8413 105.357 25.3767 104.888 25.714C104.418 26.0367 103.67 26.198 102.644 26.198V11.942ZM116.544 13.768C116.016 13.768 115.576 13.614 115.224 13.306C114.887 12.9833 114.718 12.5727 114.718 12.074C114.718 11.59 114.887 11.194 115.224 10.886C115.576 10.5633 116.016 10.402 116.544 10.402C117.072 10.402 117.505 10.5633 117.842 10.886C118.194 11.194 118.37 11.59 118.37 12.074C118.37 12.5727 118.194 12.9833 117.842 13.306C117.505 13.614 117.072 13.768 116.544 13.768ZM115.158 16.474C115.158 15.8727 115.385 15.4473 115.84 15.198C116.295 14.934 116.984 14.802 117.908 14.802V24.526C117.908 25.1127 117.681 25.538 117.226 25.802C116.771 26.066 116.082 26.198 115.158 26.198V16.474ZM125.454 26.198C124.266 26.198 123.386 25.8533 122.814 25.164C122.242 24.4747 121.956 23.5873 121.956 22.502V17.046H119.69C119.69 16.3567 119.822 15.8433 120.086 15.506C120.35 15.1687 120.702 15 121.142 15H122V13.174C122 12.5727 122.22 12.1473 122.66 11.898C123.1 11.634 123.767 11.502 124.662 11.502V15H127.588C127.588 15.7333 127.449 16.2613 127.17 16.584C126.891 16.892 126.444 17.046 125.828 17.046H124.706V22.392C124.706 22.9053 124.801 23.272 124.992 23.492C125.197 23.712 125.542 23.822 126.026 23.822C126.539 23.822 127.053 23.6827 127.566 23.404C127.713 23.536 127.83 23.7047 127.918 23.91C128.006 24.1007 128.05 24.2987 128.05 24.504C128.05 24.944 127.823 25.34 127.368 25.692C126.913 26.0293 126.275 26.198 125.454 26.198Z" fill="#100E18"/>
<circle cx="18" cy="18" r="18" fill="#C4140F"/>
<path d="M9.4707 12.7059V23.2941" stroke="white" stroke-width="2.11765"/>
<path d="M14.7646 12.7059V23.2941" stroke="white" stroke-width="2.11765"/>
<path d="M29.5879 18H18.9997" stroke="white" stroke-width="2.11765"/>
</svg>
